<svg id="svg" version="1.1" xmlns="http://www.w3.org/2000/svg" xmlns:xlink="http://www.w3.org/1999/xlink" width="400" height="225.05494505494505" viewBox="0, 0, 400,225.05494505494505"><g id="svgg"><path id="path0" d="M195.714 28.381 C 136.766 32.544,100.519 94.478,125.467 148.412 L 126.359 150.341 137.740 141.481 C 143.999 136.608,150.209 131.792,151.538 130.780 C 152.868 129.767,154.045 128.861,154.153 128.767 C 154.266 128.669,154.058 127.582,153.667 126.221 C 144.516 94.414,168.883 61.758,201.767 61.758 C 213.224 61.758,223.526 65.421,231.921 72.480 L 234.009 74.235 246.064 62.177 C 253.372 54.869,258.036 50.046,257.906 49.931 C 239.629 33.814,219.170 26.724,195.714 28.381 " stroke="none" fill="#f06925" fill-rule="evenodd"></path><path id="path1" d="M201.758 113.516 L 201.758 129.890 224.420 129.890 L 247.082 129.890 246.931 130.714 C 245.372 139.252,239.400 148.522,231.939 153.988 L 230.159 155.292 243.464 165.613 C 250.783 171.290,256.964 176.071,257.200 176.238 C 258.076 176.857,265.109 168.879,269.287 162.527 C 280.522 145.448,285.140 121.322,281.466 98.901 L 281.196 97.253 241.477 97.197 L 201.758 97.142 201.758 113.516 " stroke="none" fill="#4484f3" fill-rule="evenodd"></path><path id="path2" d="M150.741 131.380 C 146.989 134.256,128.780 148.419,127.300 149.612 L 126.358 150.372 127.546 152.617 C 148.678 192.543,200.598 208.673,241.099 187.894 C 247.023 184.855,257.253 177.667,257.253 176.544 C 257.253 176.338,230.449 155.385,230.185 155.385 C 230.132 155.385,229.266 155.880,228.260 156.485 C 201.682 172.481,166.219 159.979,155.157 130.714 C 154.271 128.370,154.765 128.296,150.741 131.380 " stroke="none" fill="#34ac54" fill-rule="evenodd"></path><path id="path3" d="M0.000 112.527 L 0.000 225.055 200.000 225.055 L 400.000 225.055 400.000 112.527 L 400.000 0.000 200.000 0.000 L 0.000 0.000 0.000 112.527 M209.910 28.459 C 226.985 30.108,241.784 36.275,254.813 47.169 C 256.276 48.392,257.642 49.583,257.849 49.815 C 258.213 50.223,257.814 50.649,246.155 62.307 L 234.083 74.377 233.250 73.668 C 213.050 56.488,184.693 58.011,166.154 77.273 C 143.652 100.653,148.478 138.773,176.123 156.020 C 196.866 168.961,227.142 164.000,240.366 145.495 C 243.526 141.073,247.029 133.016,247.033 130.165 C 247.033 129.947,242.359 129.890,224.396 129.890 L 201.758 129.890 201.758 113.516 L 201.758 97.142 241.477 97.197 L 281.195 97.253 281.473 98.901 C 282.566 105.381,282.947 118.325,282.234 124.725 C 277.331 168.732,246.139 196.786,202.088 196.809 C 129.615 196.848,90.691 112.474,137.806 57.473 C 155.618 36.680,182.602 25.822,209.910 28.459 " stroke="none" fill="#fbfbfb" fill-rule="evenodd"></path><path id="path4" d="M196.761 28.290 C 197.095 28.340,197.590 28.339,197.860 28.287 C 198.130 28.234,197.857 28.193,197.253 28.195 C 196.648 28.196,196.427 28.239,196.761 28.290 M205.769 28.289 C 206.102 28.340,206.646 28.340,206.978 28.289 C 207.310 28.239,207.038 28.198,206.374 28.198 C 205.709 28.198,205.437 28.239,205.769 28.289 M246.043 62.253 L 233.956 74.396 246.099 62.308 C 252.777 55.661,258.242 50.196,258.242 50.166 C 258.242 50.011,257.279 50.966,246.043 62.253 M142.081 52.802 L 140.769 54.176 142.143 52.864 C 142.898 52.143,143.516 51.524,143.516 51.490 C 143.516 51.328,143.300 51.526,142.081 52.802 M197.970 61.914 C 198.243 61.966,198.639 61.964,198.849 61.909 C 199.059 61.854,198.835 61.811,198.352 61.814 C 197.868 61.816,197.696 61.861,197.970 61.914 M204.560 61.913 C 204.832 61.966,205.277 61.966,205.549 61.913 C 205.821 61.861,205.599 61.818,205.055 61.818 C 204.511 61.818,204.288 61.861,204.560 61.913 M166.808 76.429 L 164.945 78.352 166.868 76.488 C 168.654 74.758,168.891 74.505,168.731 74.505 C 168.699 74.505,167.833 75.371,166.808 76.429 M117.633 104.396 C 117.633 104.819,117.679 104.992,117.734 104.780 C 117.789 104.569,117.789 104.223,117.734 104.011 C 117.679 103.799,117.633 103.973,117.633 104.396 M117.425 107.143 C 117.427 107.747,117.470 107.968,117.520 107.634 C 117.571 107.300,117.570 106.806,117.517 106.535 C 117.465 106.265,117.424 106.538,117.425 107.143 M151.919 107.912 C 151.919 108.335,151.964 108.508,152.020 108.297 C 152.075 108.085,152.075 107.739,152.020 107.527 C 151.964 107.316,151.919 107.489,151.919 107.912 M151.734 112.527 C 151.734 114.159,151.769 114.827,151.811 114.011 C 151.854 113.195,151.854 111.860,151.811 111.044 C 151.769 110.228,151.734 110.896,151.734 112.527 M117.224 112.527 C 117.224 113.797,117.260 114.316,117.305 113.681 C 117.349 113.047,117.349 112.008,117.305 111.374 C 117.260 110.739,117.224 111.258,117.224 112.527 M117.425 117.912 C 117.427 118.516,117.470 118.738,117.520 118.404 C 117.571 118.069,117.570 117.575,117.517 117.305 C 117.465 117.034,117.424 117.308,117.425 117.912 M117.633 120.659 C 117.633 121.082,117.679 121.255,117.734 121.044 C 117.789 120.832,117.789 120.486,117.734 120.275 C 117.679 120.063,117.633 120.236,117.633 120.659 M124.851 147.363 C 124.851 147.484,124.992 147.830,125.165 148.132 C 125.338 148.434,125.479 148.582,125.479 148.462 C 125.479 148.341,125.338 147.995,125.165 147.692 C 124.992 147.390,124.851 147.242,124.851 147.363 M206.209 163.228 C 206.420 163.284,206.766 163.284,206.978 163.228 C 207.190 163.173,207.016 163.128,206.593 163.128 C 206.170 163.128,205.997 163.173,206.209 163.228 M200.824 163.458 C 201.338 163.504,202.179 163.504,202.692 163.458 C 203.206 163.411,202.786 163.373,201.758 163.373 C 200.731 163.373,200.310 163.411,200.824 163.458 M141.978 172.198 C 143.000 173.225,143.886 174.066,143.946 174.066 C 144.007 174.066,143.220 173.225,142.198 172.198 C 141.176 171.170,140.290 170.330,140.229 170.330 C 140.169 170.330,140.956 171.170,141.978 172.198 M209.505 196.635 C 209.717 196.690,210.063 196.690,210.275 196.635 C 210.486 196.580,210.313 196.535,209.890 196.535 C 209.467 196.535,209.294 196.580,209.505 196.635 M196.761 196.861 C 197.095 196.912,197.590 196.910,197.860 196.858 C 198.130 196.806,197.857 196.765,197.253 196.766 C 196.648 196.768,196.427 196.810,196.761 196.861 M205.989 196.861 C 206.321 196.911,206.865 196.911,207.198 196.861 C 207.530 196.810,207.258 196.769,206.593 196.769 C 205.929 196.769,205.657 196.810,205.989 196.861 " stroke="none" fill="#e3c9a6" fill-rule="evenodd"></path></g></svg>